<svg xmlns="http://www.w3.org/2000/svg" version="1.1" xmlns:xlink="http://www.w3.org/1999/xlink" xmlns:svgjs="http://svgjs.dev/svgjs" width="2000" height="3888" viewBox="0 0 2000 3888"><g transform="matrix(1,0,0,1,0.3680952380951794,-2.0232675918371115)"><svg viewBox="0 0 126 245" data-background-color="#ffffff" preserveAspectRatio="xMidYMid meet" height="3888" width="2000" xmlns="http://www.w3.org/2000/svg" xmlns:xlink="http://www.w3.org/1999/xlink"><g id="tight-bounds" transform="matrix(1,0,0,1,-0.0231899999999996,0.12757500000002153)"><svg viewBox="0 0 126.04637999999997 244.74492999999998" height="244.74492999999998" width="126.04637999999997"><g><svg></svg></g><g><svg viewBox="0 0 126.04637999999997 244.74492999999998" height="244.74492999999998" width="126.04637999999997"><g transform="matrix(1,0,0,1,-134.73680000000004,-2.45508)"><path d="M134.737 2.455h126.046v214.19h-15.605v-198.585h-94.836l0 198.585-15.605 0z" fill="#a3c0c4" fill-rule="nonzero" stroke="none" stroke-width="1" stroke-linecap="butt" stroke-linejoin="miter" stroke-miterlimit="10" stroke-dasharray="" stroke-dashoffset="0" font-family="none" font-weight="none" font-size="none" text-anchor="none" style="mix-blend-mode: normal" data-fill-palette-color="tertiary"></path><g><path d="M159.914 218.223v0c3.193 0 6.231 0.804 9.114 2.411v0l-1.332 2.534c-1.014-0.529-2.191-0.986-3.532-1.373-1.346-0.387-2.703-0.58-4.07-0.58v0c-1.401 0-2.749 0.259-4.046 0.776-1.297 0.523-2.45 1.253-3.458 2.191-1.014 0.937-1.823 2.12-2.428 3.547-0.605 1.433-0.907 3-0.907 4.7v0c0 2.251 0.499 4.272 1.496 6.066 0.997 1.798 2.373 3.196 4.128 4.193 1.76 0.997 3.725 1.496 5.893 1.496v0c2.567 0 4.654-0.771 6.262-2.314v0-7.242h-8.06v-2.795h11.354v11.133c-0.36 0.414-0.777 0.815-1.251 1.201-0.469 0.387-1.125 0.831-1.97 1.333-0.845 0.507-1.885 0.915-3.122 1.226-1.237 0.316-2.575 0.474-4.014 0.474v0c-1.891 0-3.629-0.283-5.215-0.85-1.591-0.567-2.926-1.321-4.005-2.264-1.079-0.943-1.989-2.044-2.73-3.303-0.747-1.259-1.294-2.572-1.643-3.94-0.343-1.373-0.515-2.771-0.515-4.193v0c0-1.488 0.188-2.934 0.564-4.34 0.381-1.406 0.965-2.719 1.749-3.94 0.785-1.226 1.727-2.294 2.828-3.205 1.095-0.91 2.409-1.629 3.94-2.158 1.531-0.523 3.188-0.785 4.97-0.784zM185.515 226.708v0c2.725 0 4.97 0.869 6.736 2.607 1.76 1.744 2.64 4.152 2.64 7.226v0c0 3.259-0.899 5.85-2.698 7.774-1.804 1.924-4.136 2.885-6.997 2.885v0c-2.73 0-4.959-0.902-6.686-2.706-1.727-1.804-2.591-4.248-2.591-7.332v0c0-3.182 0.88-5.722 2.64-7.618 1.766-1.891 4.084-2.836 6.956-2.836zM185.237 229.495v0c-1.635 0-3.065 0.632-4.291 1.896-1.226 1.264-1.839 3-1.839 5.207v0c0 2.196 0.599 4.046 1.798 5.55 1.199 1.504 2.749 2.256 4.651 2.256v0c1.755 0 3.218-0.665 4.39-1.994 1.172-1.33 1.757-3.065 1.757-5.207v0c0-1.226-0.191-2.338-0.572-3.335-0.376-0.997-0.875-1.809-1.496-2.436-0.616-0.627-1.305-1.106-2.068-1.439-0.757-0.332-1.534-0.499-2.33-0.498zM201.079 246.799v-30.154h3.278v30.154zM204.675 235.903l8.698-9.22h3.612l-8.582 8.877 9.106 11.239h-3.932zM235.524 242.729v-15.645h3.278v19.715h-2.297l-0.703-1.659c-2.512 1.373-4.834 2.06-6.964 2.06v0c-1.074 0-2.011-0.169-2.812-0.507-0.796-0.343-1.414-0.766-1.855-1.267-0.441-0.507-0.793-1.15-1.055-1.929-0.267-0.779-0.439-1.52-0.515-2.223-0.071-0.708-0.106-1.515-0.106-2.42v0-11.77h3.27v12.015c0 3.444 1.499 5.166 4.495 5.167v0c1.542 0 3.297-0.512 5.264-1.537zM246.38 246.799v-30.154h3.277v30.154z" fill="#6b7280" fill-rule="nonzero" stroke="none" stroke-width="1" stroke-linecap="butt" stroke-linejoin="miter" stroke-miterlimit="10" stroke-dasharray="" stroke-dashoffset="0" font-family="none" font-weight="none" font-size="none" text-anchor="none" style="mix-blend-mode: normal" data-fill-palette-color="secondary" id="text-1"></path></g></g><g transform="matrix(1,0,0,1,9.85701352941176,35.852464999999995)"><svg viewBox="0 0 106.33235294117645 173.04" height="173.04" width="106.33235294117645"><g><svg viewBox="0 0 106.33235294117645 173.04" height="173.04" width="106.33235294117645"><g><svg viewBox="0 0 106.33235294117645 173.04" height="173.04" width="106.33235294117645"><g id="textblocktransform"><svg viewBox="0 0 106.33235294117645 173.04" height="173.04" width="106.33235294117645" id="textblock"><g><svg viewBox="0 0 106.33235294117645 173.04" height="173.04" width="106.33235294117645"><g transform="matrix(1,0,0,1,0,0)"><svg width="106.33235294117645" viewBox="2.5 -35.75 29.25 47.599999999999994" height="173.04" data-palette-color="#6b7280"><path d="M24.25-13.65L17.5-13.65 17.5-15.9 31.75-15.9 31.75 1.1Q31.75 6.6 28.45 9.22 25.15 11.85 19.55 11.85L19.55 11.85Q16.25 11.85 13.23 10.18 10.2 8.5 10.2 5.6L10.2 5.6Q10.2 5.05 10.55 4L10.55 4 12.25-0.4Q7.85-2.35 5.18-7 2.5-11.65 2.5-17.45L2.5-17.45Q2.5-25.35 7.03-30.55 11.55-35.75 19.6-35.75L19.6-35.75Q23.65-35.75 27.4-34.15 31.15-32.55 31.15-30.35L31.15-30.35Q31.15-29.5 30.6-28.4L30.6-28.4 27.8-23.8 26-24.4 26.25-26.25Q26.45-27.45 26.45-28.55L26.45-28.55Q26.45-30.5 24.55-31.95 22.65-33.4 19.6-33.4L19.6-33.4Q15-33.4 12.63-28.93 10.25-24.45 10.25-17.73 10.25-11 12.83-6.78 15.4-2.55 20.35-2.55L20.35-2.55Q22.35-2.55 24.25-3.35L24.25-3.35 24.25-13.65ZM17.75 0.75L17.75 0.75Q16 0.75 14.4 0.3L14.4 0.3 14.4 1.85Q14.4 7.55 16.8 8.9L16.8 8.9Q17.9 9.5 19.83 9.5 21.75 9.5 23 8.13 24.25 6.75 24.25 4L24.25 4 24.25-0.55Q21.25 0.75 17.75 0.75Z" opacity="1" transform="matrix(1,0,0,1,0,0)" fill="#6b7280" class="wordmark-text-0" data-fill-palette-color="primary" id="text-0"></path></svg></g></svg></g></svg></g></svg></g><g></g></svg></g></svg></g></svg></g><defs></defs></svg><rect width="126.04637999999997" height="244.74492999999998" fill="none" stroke="none" visibility="hidden"></rect></g></svg></g></svg>